<?xml version="1.0" encoding="utf-8"?>
<!-- Generator: Adobe Illustrator 26.0.1, SVG Export Plug-In . SVG Version: 6.00 Build 0)  -->
<svg version="1.1" xmlns="http://www.w3.org/2000/svg" xmlns:xlink="http://www.w3.org/1999/xlink" x="0px" y="0px"
	 viewBox="0 0 735 768" style="enable-background:new 0 0 735 768;" xml:space="preserve">
<style type="text/css">
	.st0{clip-path:url(#SVGID_00000057841253850830281390000018272407134745530768_);}
	.st1{fill-rule:evenodd;clip-rule:evenodd;fill:#FFFFFF;}
</style>
<g id="Capa_2">
</g>
<g id="Capa_1">
	<g>
		<defs>
			<rect id="SVGID_1_" x="1.2" y="0.2" width="732" height="767.6"/>
		</defs>
		<clipPath id="SVGID_00000025434924962780503690000000849915630612554641_">
			<use xlink:href="#SVGID_1_"  style="overflow:visible;"/>
		</clipPath>
		<g style="clip-path:url(#SVGID_00000025434924962780503690000000849915630612554641_);">
			<path class="st1" d="M1.3,36.8c0-20.2,16.4-36.6,36.6-36.6h658.6c20.2,0,36.6,16.4,36.6,36.6v109.7c0,10.7-4.7,20.8-12.8,27.8
				L476.9,382.7v275.8c0,13.9-7.8,26.5-20.2,32.7l-146.3,73.1c-11.2,5.6-24.6,5.1-35.3-1.4c-10.8-6.5-17.4-18.1-17.6-30.7
				l-5.5-349.5L13.8,174C5.8,167,1.3,157,1.3,146.5V36.8z M74.5,73.3v56.6l237.9,208.5c7.8,6.8,12.3,16.6,12.5,26.9l4.8,307.6
				l74.1-37v-270c0-10.7,4.7-20.8,12.8-27.8l243.3-208.5V73.3H74.5z"/>
		</g>
	</g>
</g>
</svg>
